<?xml version="1.0" encoding="UTF-8"?>
<svg id="Layer_1" xmlns="http://www.w3.org/2000/svg" viewBox="0 0 382.3 84.07">
  <defs>
    <style>
      .cls-1 {
        fill: #fff;
      }

      .cls-2 {
        fill: #58585a;
      }
    </style>
  </defs>
  <rect class="cls-2" width="382.3" height="84.07"/>
  <g>
    <path class="cls-1" d="M176.83,66.97v-21.54h13.46v21.54h9.53V17.13h-9.53v19.88h-13.46v-19.88h-9.53v49.84h9.53ZM137.07,31.9c0-5.52,2.42-7.04,6.21-7.04s6.21,1.52,6.21,7.04v1.38h9.53v-.14c0-12.29-6.49-16.7-15.74-16.7s-15.74,4.42-15.74,16.7v17.81c0,12.29,6.49,16.71,15.74,16.71s15.74-4.42,15.74-16.71v-2.07h-9.53v3.31c0,5.52-2.42,7.04-6.21,7.04s-6.21-1.52-6.21-7.04v-20.29ZM95.79,66.97l2.69-10.49h13.19l2.42,10.49h9.11l-12.01-49.84h-12.22l-12.36,49.84h9.18ZM104.91,27.9h.14l4.63,20.16h-9.46l4.69-20.16ZM82.27,66.97v-8.42h-17.26v-13.12h12.63v-8.42h-12.63v-11.46h16.57v-8.42h-26.09v49.84h26.78ZM26.63,25h4.9c4.21,0,6.76,2.07,6.76,6.9s-2.55,6.9-6.76,6.9h-4.9v-13.81ZM49.68,66.97l-9.39-22.23c5.31-2,7.52-6.49,7.52-12.7,0-9.39-5.45-14.91-16.91-14.91h-13.81v49.84h9.53v-20.29h4.56l8.28,20.29h10.22Z"/>
    <g>
      <path class="cls-1" d="M215.51,30.48v-13.34h2.55v13.34h-2.55Z"/>
      <path class="cls-1" d="M220.46,30.48v-10.05h2.25v1.15c.85-.74,1.64-1.33,2.6-1.33,1.42,0,2.16.72,2.16,2.59v7.65h-2.33v-7.39c0-.67-.22-1.11-.85-1.11-.48,0-1.02.46-1.51.91v7.59h-2.33Z"/>
      <path class="cls-1" d="M233.58,18.99h-.66c-.55,0-.79.35-.79.85v1.03h1.39v1.88h-1.39v7.72h-2.33v-7.72h-1.05v-1.88h1.05v-.96c0-2.33.98-2.96,2.68-2.96.33,0,.72.06,1.11.11v1.92Z"/>
      <path class="cls-1" d="M234.65,24.06c0-2.66,1.37-3.81,3.7-3.81s3.69,1.15,3.69,3.81v2.81c0,2.66-1.37,3.81-3.69,3.81s-3.7-1.15-3.7-3.81v-2.81ZM236.98,27.45c0,.78.55,1.18,1.37,1.18s1.37-.41,1.37-1.18v-3.99c0-.78-.55-1.18-1.37-1.18s-1.37.41-1.37,1.18v3.99Z"/>
      <path class="cls-1" d="M244.07,30.48v-10.05h2.27v1.33h.04c.54-1,1.24-1.52,2.4-1.52v2.51c-.39-.11-.83-.26-1.24-.26-.76,0-1.15.57-1.15,1.11v6.87h-2.33Z"/>
      <path class="cls-1" d="M250.22,20.43h2.25v1.15c.76-.68,1.51-1.33,2.49-1.33.87,0,1.5.59,1.77,1.52.72-.79,1.46-1.52,2.48-1.52,1.4,0,2.12.85,2.12,2.66v7.58h-2.33v-7.65c0-.66-.24-.85-.61-.85-.44,0-1.16.52-1.46.91v7.59h-2.33v-7.65c0-.66-.26-.85-.63-.85-.5,0-1.16.52-1.44.91v7.59h-2.33v-10.05Z"/>
      <path class="cls-1" d="M263.85,18.7v-2.11h2.33v2.11h-2.33ZM266.18,20.43v10.05h-2.33v-10.05h2.33Z"/>
      <path class="cls-1" d="M268.69,30.48v-10.05h2.25v1.15c.85-.74,1.64-1.33,2.6-1.33,1.42,0,2.16.72,2.16,2.59v7.65h-2.33v-7.39c0-.67-.22-1.11-.85-1.11-.48,0-1.02.46-1.51.91v7.59h-2.33Z"/>
      <path class="cls-1" d="M285.65,22.28c-.18-.04-.54-.15-.72-.15-.24,0-.48.13-.79.22.15.67.3,1.16.3,1.77,0,2.51-1.07,3.95-3.36,3.95-.33,0-.61-.02-.96-.13-.13.18-.41.35-.41.59,0,1.26,5.84-.68,5.84,2.96,0,1.72-1.77,2.53-4.47,2.53-2.48,0-3.84-.7-3.84-1.83,0-.76.85-1.22,1.4-1.57-.55-.33-.96-.78-.96-1.42,0-.79.83-1.33,1.4-1.68-1.13-.74-1.52-1.81-1.52-3.49,0-2.16.83-3.79,3.44-3.79.96,0,2.03.44,2.62,1.16.59-.74,1.16-1.16,2.03-1.16v2.03ZM279.92,30.93c-.24.24-.48.44-.48.81,0,.52.76.74,2.13.74,1.11,0,1.75-.28,1.75-.79,0-.33-.15-.48-.85-.54l-2.55-.22ZM281,22.13c-.89,0-1.22.61-1.22,2.18,0,1.26.41,1.88,1.11,1.88,1,0,1.33-.37,1.33-2.13,0-1.29-.41-1.94-1.22-1.94Z"/>
    </g>
    <g>
      <path class="cls-1" d="M215.51,66.94v-13.34h2.33v4.43c.78-.74,1.57-1.33,2.53-1.33,1.42,0,2.16.72,2.16,2.59v7.65h-2.33v-7.39c0-.66-.22-1.11-.85-1.11-.48,0-1.02.46-1.51.91v7.59h-2.33Z"/>
      <path class="cls-1" d="M231.77,56.89v10.05h-2.25v-1.15c-.85.74-1.65,1.33-2.61,1.33-1.42,0-2.16-.72-2.16-2.59v-7.65h2.33v7.39c0,.66.22,1.11.85,1.11.48,0,1.02-.46,1.52-.91v-7.59h2.33Z"/>
      <path class="cls-1" d="M233.98,56.89h2.25v1.15c.76-.68,1.52-1.33,2.49-1.33.87,0,1.5.59,1.77,1.51.72-.79,1.46-1.51,2.48-1.51,1.4,0,2.12.85,2.12,2.66v7.58h-2.33v-7.65c0-.67-.24-.85-.61-.85-.44,0-1.16.52-1.46.91v7.59h-2.33v-7.65c0-.67-.26-.85-.63-.85-.5,0-1.16.52-1.44.91v7.59h-2.33v-10.05Z"/>
      <path class="cls-1" d="M247.1,59.83c.09-1.13.55-1.9,1.24-2.4.67-.5,1.57-.72,2.5-.72,2.48,0,3.42,1.26,3.42,3.05v6.37c0,.28.06.55.13.81h-2.33c-.06-.26-.09-.57-.17-.98-.68.68-1.61,1.16-2.77,1.16-1.4,0-2.31-.78-2.31-2.4,0-2.33,2.22-3.33,5.12-4.19v-.74c0-.87-.54-1.2-1.2-1.2-.7,0-1.29.52-1.29,1.24h-2.33ZM251.92,62.03c-1.39.48-2.79,1.26-2.79,2.31,0,.67.41,1.05,1.03,1.05.7,0,1.2-.37,1.76-.92v-2.44Z"/>
      <path class="cls-1" d="M256.56,66.94v-10.05h2.25v1.15c.85-.74,1.64-1.33,2.6-1.33,1.42,0,2.16.72,2.16,2.59v7.65h-2.33v-7.39c0-.66-.22-1.11-.85-1.11-.48,0-1.02.46-1.51.91v7.59h-2.33Z"/>
      <path class="cls-1" d="M266.09,55.16v-2.11h2.33v2.11h-2.33ZM268.42,56.89v10.05h-2.33v-10.05h2.33Z"/>
      <path class="cls-1" d="M269.93,59.22v-1.88h.92v-2.73h2.33v2.73h1.5v1.88h-1.5v5.14c0,.5.43.74,1.05.74.17,0,.31,0,.46-.02v1.96c-.44.07-.89.09-1.33.09-1.51,0-2.51-.55-2.51-2v-5.91h-.92Z"/>
      <path class="cls-1" d="M275.84,59.83c.09-1.13.55-1.9,1.24-2.4.67-.5,1.57-.72,2.5-.72,2.48,0,3.42,1.26,3.42,3.05v6.37c0,.28.06.55.13.81h-2.33c-.06-.26-.09-.57-.17-.98-.68.68-1.61,1.16-2.77,1.16-1.4,0-2.31-.78-2.31-2.4,0-2.33,2.22-3.33,5.12-4.19v-.74c0-.87-.54-1.2-1.2-1.2-.7,0-1.29.52-1.29,1.24h-2.33ZM280.66,62.03c-1.39.48-2.79,1.26-2.79,2.31,0,.67.41,1.05,1.03,1.05.7,0,1.2-.37,1.76-.92v-2.44Z"/>
      <path class="cls-1" d="M285.3,66.94v-10.05h2.27v1.33h.04c.54-1,1.24-1.51,2.4-1.51v2.51c-.39-.11-.83-.26-1.24-.26-.76,0-1.15.57-1.15,1.11v6.87h-2.33Z"/>
      <path class="cls-1" d="M291.75,55.16v-2.11h2.33v2.11h-2.33ZM294.07,56.89v10.05h-2.33v-10.05h2.33Z"/>
      <path class="cls-1" d="M296.36,59.83c.09-1.13.55-1.9,1.24-2.4.67-.5,1.57-.72,2.5-.72,2.48,0,3.42,1.26,3.42,3.05v6.37c0,.28.06.55.13.81h-2.33c-.06-.26-.09-.57-.17-.98-.68.68-1.61,1.16-2.77,1.16-1.4,0-2.31-.78-2.31-2.4,0-2.33,2.22-3.33,5.12-4.19v-.74c0-.87-.54-1.2-1.2-1.2-.7,0-1.29.52-1.29,1.24h-2.33ZM301.19,62.03c-1.39.48-2.79,1.26-2.79,2.31,0,.67.41,1.05,1.03,1.05.7,0,1.2-.37,1.76-.92v-2.44Z"/>
      <path class="cls-1" d="M305.82,66.94v-10.05h2.25v1.15c.85-.74,1.64-1.33,2.6-1.33,1.42,0,2.16.72,2.16,2.59v7.65h-2.33v-7.39c0-.66-.22-1.11-.85-1.11-.48,0-1.02.46-1.51.91v7.59h-2.33Z"/>
      <path class="cls-1" d="M319.97,59.83c.09-1.13.55-1.9,1.24-2.4.67-.5,1.57-.72,2.5-.72,2.48,0,3.42,1.26,3.42,3.05v6.37c0,.28.06.55.13.81h-2.33c-.06-.26-.09-.57-.17-.98-.68.68-1.61,1.16-2.77,1.16-1.4,0-2.31-.78-2.31-2.4,0-2.33,2.22-3.33,5.12-4.19v-.74c0-.87-.54-1.2-1.2-1.2-.7,0-1.29.52-1.29,1.24h-2.33ZM324.79,62.03c-1.39.48-2.79,1.26-2.79,2.31,0,.67.41,1.05,1.03,1.05.7,0,1.2-.37,1.76-.92v-2.44Z"/>
      <path class="cls-1" d="M334.31,60.37v-.44c0-.78-.55-1.18-1.37-1.18s-1.37.41-1.37,1.18v3.99c0,.78.55,1.18,1.37,1.18s1.37-.41,1.37-1.18v-.63h2.33v.04c0,2.66-1.37,3.81-3.69,3.81s-3.7-1.15-3.7-3.81v-2.81c0-2.66,1.37-3.81,3.7-3.81s3.64,1.11,3.68,3.66h-2.31Z"/>
      <path class="cls-1" d="M337.67,59.22v-1.88h.92v-2.73h2.33v2.73h1.5v1.88h-1.5v5.14c0,.5.43.74,1.05.74.17,0,.31,0,.46-.02v1.96c-.44.07-.89.09-1.33.09-1.51,0-2.51-.55-2.51-2v-5.91h-.92Z"/>
      <path class="cls-1" d="M344.1,55.16v-2.11h2.33v2.11h-2.33ZM346.42,56.89v10.05h-2.33v-10.05h2.33Z"/>
      <path class="cls-1" d="M348.75,60.51c0-2.66,1.37-3.81,3.7-3.81s3.69,1.15,3.69,3.81v2.81c0,2.66-1.37,3.81-3.69,3.81s-3.7-1.15-3.7-3.81v-2.81ZM351.08,63.91c0,.78.55,1.18,1.37,1.18s1.37-.41,1.37-1.18v-3.99c0-.78-.55-1.18-1.37-1.18s-1.37.41-1.37,1.18v3.99Z"/>
      <path class="cls-1" d="M358.17,66.94v-10.05h2.25v1.15c.85-.74,1.64-1.33,2.6-1.33,1.42,0,2.16.72,2.16,2.59v7.65h-2.33v-7.39c0-.66-.22-1.11-.85-1.11-.48,0-1.02.46-1.51.91v7.59h-2.33Z"/>
    </g>
    <path class="cls-1" d="M215.51,38.66h2.25v1.15c.76-.68,1.51-1.33,2.49-1.33.87,0,1.5.59,1.77,1.52.72-.79,1.46-1.52,2.48-1.52,1.4,0,2.12.85,2.12,2.66v7.58h-2.33v-7.65c0-.66-.24-.85-.61-.85-.44,0-1.16.52-1.46.91v7.59h-2.33v-7.65c0-.66-.26-.85-.63-.85-.5,0-1.16.52-1.44.91v7.59h-2.33v-10.05Z"/>
    <path class="cls-1" d="M228.29,42.29c0-2.66,1.37-3.81,3.7-3.81s3.69,1.15,3.69,3.81v2.81c0,2.66-1.37,3.81-3.69,3.81s-3.7-1.15-3.7-3.81v-2.81ZM230.62,45.68c0,.78.55,1.18,1.37,1.18s1.37-.41,1.37-1.18v-3.99c0-.78-.55-1.18-1.37-1.18s-1.37.41-1.37,1.18v3.99Z"/>
    <path class="cls-1" d="M237.71,48.71v-10.05h2.27v1.33h.04c.54-1,1.24-1.52,2.4-1.52v2.51c-.39-.11-.83-.26-1.24-.26-.76,0-1.15.57-1.15,1.11v6.87h-2.33Z"/>
    <path class="cls-1" d="M246.01,44.24v1.33c0,1,.59,1.44,1.37,1.44.98,0,1.37-.63,1.37-1.4h2.33c-.11,2.07-1.35,3.29-3.69,3.29-2.22,0-3.7-1.37-3.7-3.57v-3.29c0-2.2,1.48-3.57,3.7-3.57s3.69,1.37,3.69,3.42v2.35h-5.06ZM248.74,42.36v-.55c0-.89-.43-1.44-1.37-1.44s-1.37.55-1.37,1.44v.55h2.73Z"/>
    <path class="cls-1" d="M260.38,44.24v1.33c0,1,.59,1.44,1.37,1.44.98,0,1.37-.63,1.37-1.4h2.33c-.11,2.07-1.35,3.29-3.69,3.29-2.22,0-3.7-1.37-3.7-3.57v-3.29c0-2.2,1.48-3.57,3.7-3.57s3.69,1.37,3.69,3.42v2.35h-5.06ZM263.11,42.36v-.55c0-.89-.43-1.44-1.37-1.44s-1.37.55-1.37,1.44v.55h2.73Z"/>
    <path class="cls-1" d="M271.35,37.22h-.66c-.55,0-.79.35-.79.85v1.03h1.39v1.88h-1.39v7.72h-2.33v-7.72h-1.05v-1.88h1.05v-.96c0-2.33.98-2.96,2.68-2.96.33,0,.72.06,1.11.11v1.92Z"/>
    <path class="cls-1" d="M277.23,37.22h-.66c-.55,0-.79.35-.79.85v1.03h1.39v1.88h-1.39v7.72h-2.33v-7.72h-1.05v-1.88h1.05v-.96c0-2.33.98-2.96,2.68-2.96.33,0,.72.06,1.11.11v1.92Z"/>
    <path class="cls-1" d="M280.63,44.24v1.33c0,1,.59,1.44,1.37,1.44.98,0,1.37-.63,1.37-1.4h2.33c-.11,2.07-1.35,3.29-3.69,3.29-2.22,0-3.7-1.37-3.7-3.57v-3.29c0-2.2,1.48-3.57,3.7-3.57s3.69,1.37,3.69,3.42v2.35h-5.06ZM283.36,42.36v-.55c0-.89-.43-1.44-1.37-1.44s-1.37.55-1.37,1.44v.55h2.73Z"/>
    <path class="cls-1" d="M292.6,42.14v-.44c0-.78-.55-1.18-1.37-1.18s-1.37.41-1.37,1.18v3.99c0,.78.55,1.18,1.37,1.18s1.37-.41,1.37-1.18v-.63h2.33v.04c0,2.66-1.37,3.81-3.69,3.81s-3.7-1.15-3.7-3.81v-2.81c0-2.66,1.37-3.81,3.7-3.81s3.64,1.11,3.68,3.66h-2.31Z"/>
    <path class="cls-1" d="M295.96,40.99v-1.88h.92v-2.73h2.33v2.73h1.5v1.88h-1.5v5.14c0,.5.43.74,1.05.74.17,0,.31,0,.46-.02v1.96c-.44.07-.89.09-1.33.09-1.51,0-2.51-.55-2.51-2v-5.91h-.92Z"/>
    <path class="cls-1" d="M302.39,36.93v-2.11h2.33v2.11h-2.33ZM304.71,38.66v10.05h-2.33v-10.05h2.33Z"/>
    <path class="cls-1" d="M310.2,45.13h.04l1.53-6.47h2.33l-2.73,10.05h-2.29l-2.73-10.05h2.33l1.53,6.47Z"/>
    <path class="cls-1" d="M317.57,44.24v1.33c0,1,.59,1.44,1.37,1.44.98,0,1.37-.63,1.37-1.4h2.33c-.11,2.07-1.35,3.29-3.69,3.29-2.22,0-3.7-1.37-3.7-3.57v-3.29c0-2.2,1.48-3.57,3.7-3.57s3.69,1.37,3.69,3.42v2.35h-5.06ZM320.31,42.36v-.55c0-.89-.43-1.44-1.37-1.44s-1.37.55-1.37,1.44v.55h2.73Z"/>
  </g>
</svg>